<?xml version="1.0" standalone="no"?>
<!DOCTYPE svg PUBLIC "-//W3C//DTD SVG 20010904//EN"
 "http://www.w3.org/TR/2001/REC-SVG-20010904/DTD/svg10.dtd">
<svg version="1.0" xmlns="http://www.w3.org/2000/svg"
 width="1280.000000pt" height="1134.000000pt" viewBox="0 0 1280.000000 1134.000000"
 preserveAspectRatio="xMidYMid meet">
<metadata>
Created by potrace 1.15, written by Peter Selinger 2001-2017
</metadata>
<g transform="translate(0.000000,1134.000000) scale(0.100000,-0.100000)"
fill="#000000" stroke="none">
<path d="M4020 11334 c-25 -2 -103 -9 -175 -15 -535 -45 -1053 -187 -1410
-385 -562 -313 -1002 -890 -1235 -1619 -134 -419 -187 -793 -177 -1259 6 -299
14 -358 88 -644 28 -108 66 -255 84 -325 74 -282 90 -462 82 -912 -6 -310 -18
-483 -52 -745 -54 -420 -158 -882 -234 -1046 -53 -112 -180 -301 -336 -499
-405 -514 -538 -717 -609 -929 -100 -300 -38 -520 223 -790 172 -177 361 -314
856 -621 369 -229 507 -307 810 -460 673 -340 1398 -606 2245 -824 768 -197
1155 -255 1725 -255 308 -1 387 5 585 41 308 55 388 131 480 451 72 251 289
862 370 1042 121 267 235 432 420 605 385 359 968 817 2025 1590 704 515 1744
1298 2026 1526 377 305 615 571 747 834 174 348 269 849 233 1220 -39 396
-158 666 -403 914 -468 473 -1259 730 -2249 731 -214 0 -211 -1 -224 59 -12
55 -61 167 -101 228 -51 77 -163 188 -249 245 -233 154 -497 241 -1100 364
-203 41 -426 88 -495 105 -412 98 -645 212 -1223 597 -505 338 -738 462 -1071
574 -239 79 -593 152 -897 183 -144 15 -655 28 -759 19z m625 -175 c653 -54
1218 -230 1740 -541 88 -52 210 -123 270 -158 151 -86 268 -167 343 -235 59
-54 122 -133 122 -153 0 -5 -41 -12 -91 -15 -198 -15 -436 -85 -664 -197 -628
-309 -1199 -973 -1370 -1596 -18 -67 -47 -166 -64 -220 -98 -323 -110 -472
-48 -608 24 -51 90 -136 107 -136 5 0 11 35 15 78 23 282 87 582 181 854 265
764 734 1306 1337 1548 223 90 398 124 706 140 780 38 1714 -203 2188 -566
106 -82 240 -228 297 -323 62 -106 109 -239 131 -370 33 -195 11 -461 -59
-706 -103 -367 -208 -549 -456 -794 -111 -109 -242 -214 -564 -450 -343 -252
-408 -304 -545 -436 -115 -112 -115 -115 8 -95 295 48 686 277 1030 604 221
210 405 432 521 628 107 181 131 267 185 668 30 225 46 293 93 390 72 152 209
244 419 281 85 15 384 15 523 -1 630 -70 1069 -341 1315 -812 125 -238 185
-509 185 -831 0 -180 -12 -297 -50 -487 -26 -127 -37 -160 -89 -265 -152 -307
-429 -679 -688 -926 -84 -79 -792 -679 -1098 -930 -451 -369 -866 -671 -1230
-894 -88 -54 -266 -169 -395 -255 -266 -178 -406 -261 -535 -318 -302 -132
-496 -132 -639 -1 -121 110 -125 209 -15 333 60 68 361 321 771 649 303 242
528 428 647 535 l36 32 -30 -6 c-63 -12 -193 -58 -260 -92 -155 -77 -255 -154
-570 -437 -298 -268 -412 -354 -591 -443 -250 -126 -425 -141 -669 -60 -109
37 -164 64 -275 135 -158 103 -284 247 -325 372 -14 42 -16 72 -12 135 18 230
165 478 467 789 l134 139 -59 -26 c-161 -71 -266 -172 -447 -432 -173 -250
-261 -336 -418 -405 -48 -20 -70 -24 -165 -23 -146 1 -257 31 -517 140 -73 31
-222 92 -331 135 -370 147 -510 238 -563 365 -25 61 -19 172 20 329 65 268 86
445 85 730 -1 166 -12 360 -18 305 -15 -148 -82 -512 -122 -660 -84 -310 -196
-516 -313 -577 -294 -153 -1131 72 -1268 340 -19 39 -20 47 -9 156 6 64 27
276 46 471 19 195 35 361 35 370 0 24 -59 -76 -90 -155 -16 -39 -52 -157 -79
-261 -57 -220 -78 -278 -127 -360 -51 -85 -87 -119 -178 -164 -99 -48 -195
-72 -301 -73 -181 -2 -271 73 -296 248 -17 121 0 239 87 630 23 106 27 147 31
361 5 248 -3 388 -47 783 -19 174 -30 224 -30 139 0 -47 -40 -501 -65 -738
-56 -527 -98 -799 -151 -961 -68 -212 -163 -359 -232 -359 -38 0 -87 40 -101
83 -45 143 -51 269 -40 922 5 343 6 335 -140 1048 -55 263 -68 360 -81 565
-26 440 55 937 220 1352 161 404 379 738 675 1036 193 193 351 305 609 430
395 190 853 294 1396 318 110 5 407 -3 545 -15z m-2445 -5943 c332 -52 1239
-266 1742 -411 1080 -312 2035 -732 2758 -1214 590 -394 761 -509 815 -550
220 -166 335 -315 335 -432 0 -106 -44 -169 -257 -367 -139 -130 -184 -185
-278 -346 -189 -323 -385 -848 -480 -1291 -10 -44 -19 -83 -22 -87 -2 -4 -70
37 -151 91 -1435 959 -3390 1722 -5087 1986 -442 68 -957 115 -1277 115 -54 0
-98 2 -98 4 0 23 74 205 121 297 73 143 176 298 389 584 266 357 386 554 460
755 16 42 45 160 65 261 42 216 67 303 107 382 69 138 176 205 373 237 81 12
368 4 485 -14z m-173 -2937 c316 -42 970 -204 1493 -369 1052 -332 1877 -714
2645 -1226 402 -268 515 -408 384 -475 -127 -64 -770 -89 -1159 -44 -674 77
-1291 255 -2110 608 -182 79 -1105 537 -1295 643 -327 182 -526 345 -592 484
-79 167 13 323 222 375 63 16 308 18 412 4z"/>
<path d="M4775 10420 c-180 -28 -419 -132 -594 -257 -274 -197 -514 -502 -592
-755 -30 -95 -32 -252 -4 -313 l18 -40 18 53 c44 128 149 324 243 452 339 461
807 738 1295 767 l104 6 -46 23 c-110 56 -307 85 -442 64z"/>
<path d="M11113 7980 c2 -8 21 -78 40 -155 102 -396 102 -604 -3 -865 -65
-165 -118 -250 -311 -505 -111 -147 -229 -321 -229 -338 0 -13 130 59 201 113
86 65 220 206 287 303 299 433 367 943 171 1273 -33 57 -165 203 -156 174z"/>
</g>
</svg>
